<mxfile host="app.diagrams.net" agent="Mozilla/5.0 (Windows NT 10.0; Win64; x64) AppleWebKit/537.36 (KHTML, like Gecko) Chrome/128.0.0.0 YaBrowser/24.10.0.0 Safari/537.36" version="24.8.6">
  <diagram name="Страница — 1" id="FZuVYSKQKKseB5JXQPXO">
    <mxGraphModel dx="1386" dy="783" grid="1" gridSize="10" guides="1" tooltips="1" connect="1" arrows="1" fold="1" page="1" pageScale="1" pageWidth="827" pageHeight="1169" math="0" shadow="0">
      <root>
        <mxCell id="0" />
        <mxCell id="1" parent="0" />
        <mxCell id="N31ibyE53ILmmAxschl8-4" value="" style="edgeStyle=orthogonalEdgeStyle;rounded=0;orthogonalLoop=1;jettySize=auto;html=1;" edge="1" parent="1" source="6BPBLCMizLLzq73NnSz2-1" target="N31ibyE53ILmmAxschl8-1">
          <mxGeometry relative="1" as="geometry" />
        </mxCell>
        <mxCell id="6BPBLCMizLLzq73NnSz2-1" value="Начало" style="strokeWidth=2;html=1;shape=mxgraph.flowchart.terminator;whiteSpace=wrap;" parent="1" vertex="1">
          <mxGeometry x="360" y="40" width="130" height="40" as="geometry" />
        </mxCell>
        <mxCell id="6BPBLCMizLLzq73NnSz2-2" value="Конец" style="strokeWidth=2;html=1;shape=mxgraph.flowchart.terminator;whiteSpace=wrap;" parent="1" vertex="1">
          <mxGeometry x="367.5" y="740" width="130" height="40" as="geometry" />
        </mxCell>
        <mxCell id="N31ibyE53ILmmAxschl8-6" value="" style="edgeStyle=orthogonalEdgeStyle;rounded=0;orthogonalLoop=1;jettySize=auto;html=1;" edge="1" parent="1" source="N31ibyE53ILmmAxschl8-1" target="N31ibyE53ILmmAxschl8-5">
          <mxGeometry relative="1" as="geometry" />
        </mxCell>
        <mxCell id="N31ibyE53ILmmAxschl8-1" value="Ввод: APT" style="shape=parallelogram;perimeter=parallelogramPerimeter;whiteSpace=wrap;html=1;fixedSize=1;" vertex="1" parent="1">
          <mxGeometry x="365" y="120" width="120" height="60" as="geometry" />
        </mxCell>
        <mxCell id="N31ibyE53ILmmAxschl8-20" value="" style="edgeStyle=orthogonalEdgeStyle;rounded=0;orthogonalLoop=1;jettySize=auto;html=1;" edge="1" parent="1" source="N31ibyE53ILmmAxschl8-2" target="6BPBLCMizLLzq73NnSz2-2">
          <mxGeometry relative="1" as="geometry" />
        </mxCell>
        <mxCell id="N31ibyE53ILmmAxschl8-2" value="Вывод: список techniques Mitre" style="shape=parallelogram;perimeter=parallelogramPerimeter;whiteSpace=wrap;html=1;fixedSize=1;" vertex="1" parent="1">
          <mxGeometry x="372.5" y="640" width="120" height="60" as="geometry" />
        </mxCell>
        <mxCell id="N31ibyE53ILmmAxschl8-12" value="" style="edgeStyle=orthogonalEdgeStyle;rounded=0;orthogonalLoop=1;jettySize=auto;html=1;" edge="1" parent="1" source="N31ibyE53ILmmAxschl8-5" target="N31ibyE53ILmmAxschl8-7">
          <mxGeometry relative="1" as="geometry" />
        </mxCell>
        <mxCell id="N31ibyE53ILmmAxschl8-5" value="ПО обращается к ресурсу&amp;nbsp;&lt;div&gt;https://attack.mitre.org/groups/&lt;/div&gt;" style="rounded=0;whiteSpace=wrap;html=1;" vertex="1" parent="1">
          <mxGeometry x="317.5" y="230" width="215" height="60" as="geometry" />
        </mxCell>
        <mxCell id="N31ibyE53ILmmAxschl8-16" style="edgeStyle=orthogonalEdgeStyle;rounded=0;orthogonalLoop=1;jettySize=auto;html=1;exitX=0;exitY=0.5;exitDx=0;exitDy=0;entryX=0.5;entryY=0;entryDx=0;entryDy=0;" edge="1" parent="1" source="N31ibyE53ILmmAxschl8-7" target="N31ibyE53ILmmAxschl8-9">
          <mxGeometry relative="1" as="geometry" />
        </mxCell>
        <mxCell id="N31ibyE53ILmmAxschl8-17" style="edgeStyle=orthogonalEdgeStyle;rounded=0;orthogonalLoop=1;jettySize=auto;html=1;exitX=1;exitY=0.5;exitDx=0;exitDy=0;entryX=0.5;entryY=0;entryDx=0;entryDy=0;" edge="1" parent="1" source="N31ibyE53ILmmAxschl8-7" target="N31ibyE53ILmmAxschl8-14">
          <mxGeometry relative="1" as="geometry" />
        </mxCell>
        <mxCell id="N31ibyE53ILmmAxschl8-7" value="ID APT найдена?" style="rhombus;whiteSpace=wrap;html=1;" vertex="1" parent="1">
          <mxGeometry x="367.5" y="320" width="115" height="80" as="geometry" />
        </mxCell>
        <mxCell id="N31ibyE53ILmmAxschl8-9" value="Вывод сообщения об ошибке поиска" style="rounded=0;whiteSpace=wrap;html=1;" vertex="1" parent="1">
          <mxGeometry x="240" y="400" width="120" height="60" as="geometry" />
        </mxCell>
        <mxCell id="N31ibyE53ILmmAxschl8-18" value="" style="edgeStyle=orthogonalEdgeStyle;rounded=0;orthogonalLoop=1;jettySize=auto;html=1;" edge="1" parent="1" source="N31ibyE53ILmmAxschl8-14" target="N31ibyE53ILmmAxschl8-15">
          <mxGeometry relative="1" as="geometry" />
        </mxCell>
        <mxCell id="N31ibyE53ILmmAxschl8-14" value="Переход к данным APT" style="rounded=0;whiteSpace=wrap;html=1;" vertex="1" parent="1">
          <mxGeometry x="520" y="400" width="120" height="60" as="geometry" />
        </mxCell>
        <mxCell id="N31ibyE53ILmmAxschl8-19" style="edgeStyle=orthogonalEdgeStyle;rounded=0;orthogonalLoop=1;jettySize=auto;html=1;entryX=0.5;entryY=0;entryDx=0;entryDy=0;" edge="1" parent="1" source="N31ibyE53ILmmAxschl8-15" target="N31ibyE53ILmmAxschl8-2">
          <mxGeometry relative="1" as="geometry" />
        </mxCell>
        <mxCell id="N31ibyE53ILmmAxschl8-15" value="Получение списка techniques Mitre&lt;br&gt;из таблицы&amp;nbsp;Techniques Used" style="rounded=0;whiteSpace=wrap;html=1;" vertex="1" parent="1">
          <mxGeometry x="485" y="510" width="190" height="60" as="geometry" />
        </mxCell>
        <mxCell id="N31ibyE53ILmmAxschl8-21" value="Да" style="text;html=1;align=center;verticalAlign=middle;whiteSpace=wrap;rounded=0;" vertex="1" parent="1">
          <mxGeometry x="473" y="330" width="60" height="30" as="geometry" />
        </mxCell>
        <mxCell id="N31ibyE53ILmmAxschl8-22" value="Нет" style="text;html=1;align=center;verticalAlign=middle;whiteSpace=wrap;rounded=0;" vertex="1" parent="1">
          <mxGeometry x="320" y="330" width="60" height="30" as="geometry" />
        </mxCell>
        <mxCell id="N31ibyE53ILmmAxschl8-23" style="edgeStyle=orthogonalEdgeStyle;rounded=0;orthogonalLoop=1;jettySize=auto;html=1;exitX=0.5;exitY=1;exitDx=0;exitDy=0;entryX=0;entryY=0.5;entryDx=0;entryDy=0;entryPerimeter=0;" edge="1" parent="1" source="N31ibyE53ILmmAxschl8-9" target="6BPBLCMizLLzq73NnSz2-2">
          <mxGeometry relative="1" as="geometry" />
        </mxCell>
      </root>
    </mxGraphModel>
  </diagram>
</mxfile>
